<svg width="32" height="32" viewBox="0 0 32 32" fill="none" xmlns="http://www.w3.org/2000/svg">
<path d="M32 16.0049C32 7.16562 24.8366 0 16 0C7.16345 0 0 7.16562 0 16.0049C0 24.8441 7.16345 32.0097 16 32.0097C24.8366 32.0097 32 24.8441 32 16.0049Z" fill="white"/>
<path d="M26.0746 12.6882C25.9487 11.4725 25.6778 10.1286 24.6805 9.42227C23.9081 8.87457 22.8928 8.85432 21.945 8.85545C19.9415 8.85545 17.9369 8.85882 15.9334 8.85995C14.0063 8.8622 12.0793 8.86332 10.1522 8.86557C9.34719 8.86557 8.56467 8.80371 7.81701 9.15235C7.17503 9.45151 6.67246 10.0206 6.37002 10.6538C5.95066 11.5344 5.86297 12.5319 5.81237 13.5059C5.71906 15.2794 5.72917 17.0575 5.84048 18.8299C5.92255 20.1233 6.13055 21.5527 7.13006 22.3771C8.01601 23.107 9.26624 23.143 10.4153 23.1441C14.0625 23.1475 17.7109 23.1508 21.3593 23.1531C21.827 23.1542 22.3149 23.1452 22.7917 23.0935C23.7293 22.9923 24.6231 22.7235 25.2258 22.0284C25.834 21.3278 25.9903 20.3527 26.0825 19.4294C26.3074 17.1891 26.3051 14.9274 26.0746 12.6882ZM13.8242 19.1449V12.8637L19.2613 16.0037L13.8242 19.1449Z" fill="#252B2E"/>
</svg>
